<svg width="28" height="28" viewBox="0 0 28 28" fill="none" xmlns="http://www.w3.org/2000/svg">
<path d="M10.3333 27.3333L9.80001 23.0666C9.51112 22.9555 9.23867 22.8222 8.98267 22.6666C8.72667 22.5111 8.4769 22.3444 8.23334 22.1666L4.26667 23.8333L0.600006 17.5L4.03334 14.9C4.01112 14.7444 4.00001 14.5942 4.00001 14.4493V13.5506C4.00001 13.4057 4.01112 13.2555 4.03334 13.1L0.600006 10.5L4.26667 4.16663L8.23334 5.83329C8.47778 5.65552 8.73334 5.48885 9.00001 5.33329C9.26667 5.17774 9.53334 5.0444 9.80001 4.93329L10.3333 0.666626H17.6667L18.2 4.93329C18.4889 5.0444 18.7613 5.17774 19.0173 5.33329C19.2733 5.48885 19.5231 5.65552 19.7667 5.83329L23.7333 4.16663L27.4 10.5L23.9667 13.1C23.9889 13.2555 24 13.4057 24 13.5506V14.4493C24 14.5942 23.9778 14.7444 23.9333 14.9L27.3667 17.5L23.7 23.8333L19.7667 22.1666C19.5222 22.3444 19.2667 22.5111 19 22.6666C18.7333 22.8222 18.4667 22.9555 18.2 23.0666L17.6667 27.3333H10.3333ZM14.0667 18.6666C15.3556 18.6666 16.4556 18.2111 17.3667 17.3C18.2778 16.3888 18.7333 15.2888 18.7333 14C18.7333 12.7111 18.2778 11.6111 17.3667 10.7C16.4556 9.78885 15.3556 9.33329 14.0667 9.33329C12.7556 9.33329 11.6498 9.78885 10.7493 10.7C9.8489 11.6111 9.39912 12.7111 9.40001 14C9.40001 15.2888 9.84978 16.3888 10.7493 17.3C11.6489 18.2111 12.7547 18.6666 14.0667 18.6666Z" fill="#797D9B"/>
</svg>
